<?xml version="1.0"?>
<svg xmlns="http://www.w3.org/2000/svg" viewBox="0 0 16 16">
    <path style="line-height:normal;text-indent:0;text-align:start;text-decoration-line:none;text-decoration-style:solid;text-decoration-color:#000;text-transform:none;block-progression:tb;isolation:auto;mix-blend-mode:normal" d="M 8 0.9609375 L 0 4.1621094 L 0 5.2304688 L 0 12 L 1 12 L 1 5.5800781 L 3 6.2792969 L 3 10.533203 L 3.2421875 10.679688 C 3.2421875 10.679688 5.41061 12 8 12 C 10.58939 12 12.757812 10.679687 12.757812 10.679688 L 13 10.533203 L 13 6.28125 L 16 5.2304688 L 16 4.1621094 L 8 0.9609375 z M 8 2.0390625 L 14.576172 4.6679688 L 8 6.96875 L 1.4238281 4.6679688 L 8 2.0390625 z M 4 6.6289062 L 8 8.0292969 L 8.1660156 7.9726562 L 12 6.6308594 L 12 9.9316406 C 11.671894 10.114467 10.032255 11 8 11 C 5.9677445 11 4.3281063 10.114467 4 9.9316406 L 4 6.6289062 z M 0.5 13 A 0.5 0.5 0 0 0 0 13.5 A 0.5 0.5 0 0 0 0.5 14 A 0.5 0.5 0 0 0 1 13.5 A 0.5 0.5 0 0 0 0.5 13 z" font-weight="400" font-family="sans-serif" white-space="normal" overflow="visible"/>
</svg>
